<svg data-v-423bf9ae="" xmlns="http://www.w3.org/2000/svg" viewBox="0 0 760 106" class="iconLeft"><!----><!----><!----><g data-v-423bf9ae="" id="e5b82c6d-8ec7-4003-a9b5-1636cd8bcee5" fill="black" transform="matrix(4.389173347851694,0,0,4.389173347851694,84.57653117481397,11.03254623911932)"><path d="M12.03 4.06L10.74 4.21L10.74 4.21Q10.71 5.10 10.71 6.00L10.71 6.00L10.71 6.00Q10.71 6.90 10.71 7.83L10.71 7.83L10.71 8.51L10.71 8.51Q10.71 9.42 10.71 10.32L10.71 10.32L10.71 10.32Q10.71 11.21 10.74 12.12L10.74 12.12L12.03 12.28L12.03 12.85L8.20 12.85L8.20 12.28L9.38 12.14L9.38 12.14Q9.41 11.24 9.41 10.34L9.41 10.34L9.41 10.34Q9.41 9.44 9.41 8.51L9.41 8.51L9.41 5.54L6.19 12.85L5.75 12.85L2.52 5.45L2.52 12.10L3.68 12.28L3.68 12.85L0.53 12.85L0.53 12.28L1.81 12.10L1.81 4.21L0.55 4.06L0.55 3.49L3.04 3.49L6.29 11.00L9.65 3.49L12.03 3.49L12.03 4.06ZM16.88 11.38L16.88 9.23L16.88 9.23Q16.52 9.32 16.18 9.44L16.18 9.44L16.18 9.44Q15.83 9.55 15.61 9.63L15.61 9.63L15.61 9.63Q15.15 9.81 14.88 10.00L14.88 10.00L14.88 10.00Q14.60 10.19 14.46 10.37L14.46 10.37L14.46 10.37Q14.32 10.56 14.28 10.74L14.28 10.74L14.28 10.74Q14.24 10.92 14.24 11.07L14.24 11.07L14.24 11.07Q14.24 11.35 14.31 11.52L14.31 11.52L14.31 11.52Q14.39 11.69 14.50 11.82L14.50 11.82L14.50 11.82Q14.83 12.14 15.36 12.14L15.36 12.14L15.36 12.14Q15.53 12.14 15.68 12.10L15.68 12.10L15.68 12.10Q15.83 12.07 16.00 11.98L16.00 11.98L16.00 11.98Q16.17 11.89 16.38 11.74L16.38 11.74L16.38 11.74Q16.59 11.59 16.88 11.38L16.88 11.38ZM19.12 11.94L19.40 12.25L19.40 12.25Q19.17 12.70 18.89 12.85L18.89 12.85L18.89 12.85Q18.61 12.99 18.27 12.99L18.27 12.99L18.27 12.99Q17.68 12.99 17.35 12.71L17.35 12.71L17.35 12.71Q17.01 12.42 16.91 11.94L16.91 11.94L16.91 11.94Q16.63 12.22 16.39 12.43L16.39 12.43L16.39 12.43Q16.16 12.64 15.92 12.78L15.92 12.78L15.92 12.78Q15.68 12.92 15.43 12.99L15.43 12.99L15.43 12.99Q15.18 13.06 14.87 13.06L14.87 13.06L14.87 13.06Q14.49 13.06 14.15 12.95L14.15 12.95L14.15 12.95Q13.80 12.84 13.54 12.61L13.54 12.61L13.54 12.61Q13.29 12.39 13.14 12.06L13.14 12.06L13.14 12.06Q12.99 11.73 12.99 11.30L12.99 11.30L12.99 11.30Q12.99 11.00 13.09 10.72L13.09 10.72L13.09 10.72Q13.19 10.44 13.44 10.19L13.44 10.19L13.44 10.19Q13.69 9.93 14.15 9.67L14.15 9.67L14.15 9.67Q14.60 9.41 15.32 9.16L15.32 9.16L15.32 9.16Q15.64 9.04 16.05 8.93L16.05 8.93L16.05 8.93Q16.46 8.81 16.88 8.69L16.88 8.69L16.88 8.32L16.88 8.32Q16.88 7.81 16.81 7.48L16.81 7.48L16.81 7.48Q16.73 7.15 16.58 6.96L16.58 6.96L16.58 6.96Q16.42 6.78 16.18 6.70L16.18 6.70L16.18 6.70Q15.93 6.62 15.58 6.62L15.58 6.62L15.58 6.62Q15.43 6.62 15.25 6.64L15.25 6.64L15.25 6.64Q15.08 6.65 14.87 6.69L14.87 6.69L14.59 7.67L14.59 7.67Q14.39 8.34 13.83 8.34L13.83 8.34L13.83 8.34Q13.54 8.34 13.37 8.18L13.37 8.18L13.37 8.18Q13.20 8.02 13.17 7.74L13.17 7.74L13.17 7.74Q13.37 6.94 14.10 6.46L14.10 6.46L14.10 6.46Q14.83 5.98 15.90 5.98L15.90 5.98L15.90 5.98Q17.01 5.98 17.54 6.54L17.54 6.54L17.54 6.54Q18.07 7.10 18.07 8.44L18.07 8.44L18.07 11.44L18.07 11.44Q18.07 12.26 18.54 12.26L18.54 12.26L18.54 12.26Q18.70 12.26 18.83 12.19L18.83 12.19L18.83 12.19Q18.96 12.11 19.05 12.03L19.05 12.03L19.12 11.94ZM26.52 12.15L27.50 12.35L27.50 12.85L24.25 12.85L24.25 12.35L25.28 12.15L25.28 12.15Q25.30 11.63 25.30 11.02L25.30 11.02L25.30 11.02Q25.31 10.40 25.31 9.91L25.31 9.91L25.31 8.68L25.31 8.68Q25.31 7.73 25.05 7.35L25.05 7.35L25.05 7.35Q24.78 6.97 24.16 6.97L24.16 6.97L24.16 6.97Q23.67 6.97 23.22 7.18L23.22 7.18L23.22 7.18Q22.76 7.39 22.23 7.85L22.23 7.85L22.23 9.91L22.23 9.91Q22.23 10.37 22.24 11.00L22.24 11.00L22.24 11.00Q22.25 11.62 22.26 12.15L22.26 12.15L23.24 12.35L23.24 12.85L19.99 12.85L19.99 12.35L21.03 12.15L21.03 12.15Q21.04 11.62 21.05 11.00L21.05 11.00L21.05 11.00Q21.06 10.39 21.06 9.91L21.06 9.91L21.06 9.20L21.06 9.20Q21.06 8.62 21.04 8.25L21.04 8.25L21.04 8.25Q21.03 7.87 21.01 7.45L21.01 7.45L19.91 7.32L19.91 6.83L21.85 5.98L22.06 6.12L22.18 7.25L22.18 7.25Q22.69 6.68 23.36 6.33L23.36 6.33L23.36 6.33Q24.02 5.98 24.70 5.98L24.70 5.98L24.70 5.98Q25.61 5.98 26.05 6.58L26.05 6.58L26.05 6.58Q26.49 7.18 26.49 8.57L26.49 8.57L26.49 9.91L26.49 9.91Q26.49 10.40 26.49 11.01L26.49 11.01L26.49 11.01Q26.50 11.62 26.52 12.15L26.52 12.15ZM30.62 12.15L31.72 12.35L31.72 12.85L28.28 12.85L28.28 12.35L29.39 12.15L29.39 12.15Q29.40 11.58 29.41 11.03L29.41 11.03L29.41 11.03Q29.41 10.47 29.41 9.91L29.41 9.91L29.41 3.91L28.27 3.77L28.27 3.28L30.45 2.65L30.65 2.76L30.59 4.75L30.59 9.91L30.59 9.91Q30.59 10.47 30.60 11.03L30.60 11.03L30.60 11.03Q30.60 11.59 30.62 12.15L30.62 12.15ZM38.92 6.23L38.92 6.80L38.14 6.97L36.04 12.80L36.04 12.80Q35.70 13.72 35.37 14.39L35.37 14.39L35.37 14.39Q35.04 15.06 34.70 15.49L34.70 15.49L34.70 15.49Q34.36 15.92 33.98 16.12L33.98 16.12L33.98 16.12Q33.61 16.32 33.18 16.32L33.18 16.32L33.18 16.32Q32.65 16.32 32.27 16.07L32.27 16.07L32.27 16.07Q31.89 15.81 31.89 15.39L31.89 15.39L31.89 15.39Q31.96 15.09 32.23 14.95L32.23 14.95L32.23 14.95Q32.49 14.80 32.82 14.80L32.82 14.80L32.82 14.80Q33.10 14.80 33.33 14.92L33.33 14.92L33.33 14.92Q33.56 15.04 33.88 15.34L33.88 15.34L33.92 15.39L33.92 15.39Q34.37 15.01 34.68 14.46L34.68 14.46L34.68 14.46Q34.99 13.92 35.25 13.23L35.25 13.23L32.73 6.93L31.92 6.80L31.92 6.23L35.29 6.23L35.29 6.82L34.08 6.96L35.81 11.62L37.39 6.97L36.19 6.80L36.19 6.23L38.92 6.23ZM45.96 12.17L45.96 12.17L45.96 12.17Q46.63 12.17 47.19 11.87L47.19 11.87L47.19 11.87Q47.75 11.56 48.16 11.16L48.16 11.16L48.16 11.16Q47.80 10.71 47.42 10.28L47.42 10.28L47.42 10.28Q47.05 9.84 46.61 9.35L46.61 9.35L46.61 9.35Q46.27 8.99 45.95 8.63L45.95 8.63L45.95 8.63Q45.64 8.27 45.32 7.91L45.32 7.91L45.32 7.91Q44.91 8.13 44.64 8.39L44.64 8.39L44.64 8.39Q44.37 8.65 44.20 8.93L44.20 8.93L44.20 8.93Q44.04 9.20 43.98 9.48L43.98 9.48L43.98 9.48Q43.92 9.76 43.92 10.02L43.92 10.02L43.92 10.02Q43.92 10.43 44.06 10.82L44.06 10.82L44.06 10.82Q44.20 11.20 44.46 11.50L44.46 11.50L44.46 11.50Q44.72 11.80 45.09 11.98L45.09 11.98L45.09 11.98Q45.47 12.17 45.96 12.17ZM45.43 6.48L45.96 7.04L45.96 7.04Q46.51 6.64 46.83 6.16L46.83 6.16L46.83 6.16Q47.15 5.68 47.15 5.11L47.15 5.11L47.15 5.11Q47.15 4.48 46.81 4.13L46.81 4.13L46.81 4.13Q46.47 3.78 45.93 3.78L45.93 3.78L45.93 3.78Q45.39 3.78 45.02 4.11L45.02 4.11L45.02 4.11Q44.65 4.44 44.65 4.97L44.65 4.97L44.65 4.97Q44.65 5.33 44.83 5.69L44.83 5.69L44.83 5.69Q45.02 6.05 45.43 6.48L45.43 6.48ZM52.09 6.80L51.13 6.96L51.13 6.96Q50.76 7.98 50.31 8.90L50.31 8.90L50.31 8.90Q49.85 9.83 49.27 10.70L49.27 10.70L49.27 10.70Q49.56 11.06 49.85 11.40L49.85 11.40L49.85 11.40Q50.13 11.75 50.39 12.05L50.39 12.05L51.90 12.35L51.90 12.85L51.90 12.85Q51.67 12.92 51.42 12.96L51.42 12.96L51.42 12.96Q51.17 12.99 50.88 12.99L50.88 12.99L50.88 12.99Q50.16 12.99 49.76 12.78L49.76 12.78L49.76 12.78Q49.36 12.56 49.03 12.15L49.03 12.15L49.03 12.15Q48.92 12.01 48.80 11.89L48.80 11.89L48.80 11.89Q48.68 11.76 48.57 11.63L48.57 11.63L48.57 11.63Q48.33 11.93 48.04 12.19L48.04 12.19L48.04 12.19Q47.75 12.45 47.40 12.64L47.40 12.64L47.40 12.64Q47.04 12.84 46.62 12.95L46.62 12.95L46.62 12.95Q46.20 13.06 45.70 13.06L45.70 13.06L45.70 13.06Q45.02 13.06 44.47 12.85L44.47 12.85L44.47 12.85Q43.92 12.64 43.52 12.28L43.52 12.28L43.52 12.28Q43.12 11.91 42.90 11.43L42.90 11.43L42.90 11.43Q42.69 10.95 42.69 10.40L42.69 10.40L42.69 10.40Q42.69 9.46 43.27 8.78L43.27 8.78L43.27 8.78Q43.85 8.09 44.95 7.52L44.95 7.52L44.83 7.39L44.83 7.39Q44.31 6.86 43.98 6.36L43.98 6.36L43.98 6.36Q43.65 5.87 43.65 5.24L43.65 5.24L43.65 5.24Q43.65 4.79 43.83 4.42L43.83 4.42L43.83 4.42Q44.00 4.06 44.32 3.81L44.32 3.81L44.32 3.81Q44.63 3.56 45.06 3.42L45.06 3.42L45.06 3.42Q45.49 3.28 45.99 3.28L45.99 3.28L45.99 3.28Q47.00 3.28 47.54 3.77L47.54 3.77L47.54 3.77Q48.08 4.27 48.08 5.07L48.08 5.07L48.08 5.07Q48.08 5.77 47.66 6.33L47.66 6.33L47.66 6.33Q47.25 6.89 46.33 7.42L46.33 7.42L47.36 8.51L47.36 8.51Q47.68 8.85 48.08 9.31L48.08 9.31L48.08 9.31Q48.48 9.77 48.90 10.26L48.90 10.26L48.90 10.26Q49.39 9.51 49.77 8.69L49.77 8.69L49.77 8.69Q50.15 7.88 50.46 7L50.46 7L49.08 6.80L49.08 6.23L52.09 6.23L52.09 6.80ZM59.19 7.36L59.75 7.57L59.75 7.57Q60.45 7.84 60.94 8.13L60.94 8.13L60.94 8.13Q61.43 8.43 61.73 8.76L61.73 8.76L61.73 8.76Q62.03 9.10 62.17 9.49L62.17 9.49L62.17 9.49Q62.31 9.88 62.31 10.36L62.31 10.36L62.31 10.36Q62.31 10.99 62.07 11.49L62.07 11.49L62.07 11.49Q61.82 11.98 61.38 12.33L61.38 12.33L61.38 12.33Q60.94 12.68 60.33 12.87L60.33 12.87L60.33 12.87Q59.71 13.06 58.98 13.06L58.98 13.06L58.98 13.06Q58.18 13.06 57.46 12.85L57.46 12.85L57.46 12.85Q56.74 12.63 56.25 12.32L56.25 12.32L56.34 10.36L57.19 10.36L57.47 11.98L57.47 11.98Q57.81 12.18 58.15 12.27L58.15 12.27L58.15 12.27Q58.49 12.36 58.94 12.36L58.94 12.36L58.94 12.36Q59.93 12.36 60.53 11.91L60.53 11.91L60.53 11.91Q61.12 11.47 61.12 10.64L61.12 10.64L61.12 10.64Q61.12 10.32 61.02 10.07L61.02 10.07L61.02 10.07Q60.91 9.83 60.70 9.63L60.70 9.63L60.70 9.63Q60.49 9.44 60.16 9.27L60.16 9.27L60.16 9.27Q59.84 9.10 59.39 8.93L59.39 8.93L58.84 8.72L58.84 8.72Q58.30 8.51 57.85 8.25L57.85 8.25L57.85 8.25Q57.41 7.98 57.09 7.64L57.09 7.64L57.09 7.64Q56.77 7.29 56.59 6.87L56.59 6.87L56.59 6.87Q56.42 6.45 56.42 5.92L56.42 5.92L56.42 5.92Q56.42 5.32 56.66 4.83L56.66 4.83L56.66 4.83Q56.90 4.34 57.32 3.99L57.32 3.99L57.32 3.99Q57.74 3.64 58.32 3.46L58.32 3.46L58.32 3.46Q58.90 3.28 59.57 3.28L59.57 3.28L59.57 3.28Q60.28 3.28 60.86 3.48L60.86 3.48L60.86 3.48Q61.43 3.68 61.88 4.02L61.88 4.02L61.80 5.85L60.93 5.85L60.63 4.26L60.63 4.26Q60.10 3.99 59.50 3.99L59.50 3.99L59.50 3.99Q58.69 3.99 58.14 4.40L58.14 4.40L58.14 4.40Q57.60 4.80 57.60 5.61L57.60 5.61L57.60 5.61Q57.60 6.29 58.01 6.68L58.01 6.68L58.01 6.68Q58.42 7.07 59.19 7.36L59.19 7.36ZM66.71 6.62L66.71 6.62L66.71 6.62Q65.79 6.62 65.30 7.37L65.30 7.37L65.30 7.37Q64.81 8.12 64.81 9.55L64.81 9.55L64.81 9.55Q64.81 10.96 65.30 11.70L65.30 11.70L65.30 11.70Q65.79 12.43 66.71 12.43L66.71 12.43L66.71 12.43Q67.62 12.43 68.11 11.70L68.11 11.70L68.11 11.70Q68.60 10.96 68.60 9.55L68.60 9.55L68.60 9.55Q68.60 8.12 68.11 7.37L68.11 7.37L68.11 7.37Q67.62 6.62 66.71 6.62ZM66.71 5.98L66.71 5.98L66.71 5.98Q67.31 5.98 67.89 6.21L67.89 6.21L67.89 6.21Q68.47 6.44 68.92 6.90L68.92 6.90L68.92 6.90Q69.37 7.35 69.65 8.02L69.65 8.02L69.65 8.02Q69.93 8.68 69.93 9.55L69.93 9.55L69.93 9.55Q69.93 10.42 69.66 11.07L69.66 11.07L69.66 11.07Q69.38 11.73 68.93 12.17L68.93 12.17L68.93 12.17Q68.47 12.61 67.89 12.84L67.89 12.84L67.89 12.84Q67.31 13.06 66.71 13.06L66.71 13.06L66.71 13.06Q66.09 13.06 65.51 12.84L65.51 12.84L65.51 12.84Q64.93 12.61 64.48 12.17L64.48 12.17L64.48 12.17Q64.04 11.73 63.76 11.07L63.76 11.07L63.76 11.07Q63.49 10.42 63.49 9.55L63.49 9.55L63.49 9.55Q63.49 8.68 63.76 8.02L63.76 8.02L63.76 8.02Q64.04 7.35 64.49 6.90L64.49 6.90L64.49 6.90Q64.95 6.44 65.52 6.21L65.52 6.21L65.52 6.21Q66.09 5.98 66.71 5.98ZM77.64 12.15L78.62 12.35L78.62 12.85L75.38 12.85L75.38 12.35L76.41 12.15L76.41 12.15Q76.43 11.63 76.43 11.02L76.43 11.02L76.43 11.02Q76.44 10.40 76.44 9.91L76.44 9.91L76.44 8.68L76.44 8.68Q76.44 7.73 76.17 7.35L76.17 7.35L76.17 7.35Q75.91 6.97 75.29 6.97L75.29 6.97L75.29 6.97Q74.80 6.97 74.35 7.18L74.35 7.18L74.35 7.18Q73.89 7.39 73.36 7.85L73.36 7.85L73.36 9.91L73.36 9.91Q73.36 10.37 73.37 11.00L73.37 11.00L73.37 11.00Q73.37 11.62 73.39 12.15L73.39 12.15L74.37 12.35L74.37 12.85L71.12 12.85L71.12 12.35L72.16 12.15L72.16 12.15Q72.17 11.62 72.18 11.00L72.18 11.00L72.18 11.00Q72.18 10.39 72.18 9.91L72.18 9.91L72.18 9.20L72.18 9.20Q72.18 8.62 72.17 8.25L72.17 8.25L72.17 8.25Q72.16 7.87 72.14 7.45L72.14 7.45L71.04 7.32L71.04 6.83L72.98 5.98L73.19 6.12L73.30 7.25L73.30 7.25Q73.82 6.68 74.49 6.33L74.49 6.33L74.49 6.33Q75.15 5.98 75.82 5.98L75.82 5.98L75.82 5.98Q76.73 5.98 77.17 6.58L77.17 6.58L77.17 6.58Q77.62 7.18 77.62 8.57L77.62 8.57L77.62 9.91L77.62 9.91Q77.62 10.40 77.62 11.01L77.62 11.01L77.62 11.01Q77.63 11.62 77.64 12.15L77.64 12.15ZM82.24 8.82L82.66 8.97L82.66 8.97Q83.72 9.37 84.15 9.88L84.15 9.88L84.15 9.88Q84.57 10.39 84.57 11.05L84.57 11.05L84.57 11.05Q84.57 11.44 84.41 11.80L84.41 11.80L84.41 11.80Q84.24 12.17 83.89 12.45L83.89 12.45L83.89 12.45Q83.55 12.73 83.04 12.89L83.04 12.89L83.04 12.89Q82.53 13.06 81.86 13.06L81.86 13.06L81.86 13.06Q81.26 13.06 80.77 12.93L80.77 12.93L80.77 12.93Q80.29 12.80 79.76 12.52L79.76 12.52L79.72 10.99L80.49 10.99L80.75 12.19L80.75 12.19Q81.24 12.42 81.89 12.42L81.89 12.42L81.89 12.42Q82.68 12.42 83.08 12.12L83.08 12.12L83.08 12.12Q83.47 11.83 83.47 11.34L83.47 11.34L83.47 11.34Q83.47 10.89 83.14 10.63L83.14 10.63L83.14 10.63Q82.81 10.36 82.14 10.11L82.14 10.11L81.49 9.87L81.49 9.87Q80.72 9.59 80.26 9.13L80.26 9.13L80.26 9.13Q79.80 8.68 79.80 8.01L79.80 8.01L79.80 8.01Q79.80 7.60 79.97 7.24L79.97 7.24L79.97 7.24Q80.15 6.87 80.47 6.59L80.47 6.59L80.47 6.59Q80.78 6.31 81.23 6.15L81.23 6.15L81.23 6.15Q81.69 5.98 82.25 5.98L82.25 5.98L82.25 5.98Q82.82 5.98 83.29 6.13L83.29 6.13L83.29 6.13Q83.75 6.27 84.21 6.55L84.21 6.55L84.15 7.98L83.43 7.98L83.22 6.86L83.22 6.86Q82.71 6.62 82.24 6.62L82.24 6.62L82.24 6.62Q81.59 6.62 81.26 6.90L81.26 6.90L81.26 6.90Q80.93 7.17 80.93 7.64L80.93 7.64L80.93 7.64Q80.93 8.06 81.22 8.31L81.22 8.31L81.22 8.31Q81.51 8.55 82.24 8.82L82.24 8.82ZM91.67 12.19L92.53 12.19L92.53 12.19Q93.91 12.19 94.56 11.70L94.56 11.70L94.56 11.70Q95.20 11.21 95.20 10.29L95.20 10.29L95.20 10.29Q95.20 9.31 94.55 8.82L94.55 8.82L94.55 8.82Q93.90 8.33 92.43 8.33L92.43 8.33L91.64 8.33L91.64 8.33Q91.64 9.38 91.64 10.32L91.64 10.32L91.64 10.32Q91.64 11.27 91.67 12.19L91.67 12.19ZM92.67 4.14L91.67 4.14L91.67 4.14Q91.64 5.03 91.64 5.91L91.64 5.91L91.64 5.91Q91.64 6.79 91.64 7.69L91.64 7.69L92.39 7.69L92.39 7.69Q93.66 7.69 94.23 7.26L94.23 7.26L94.23 7.26Q94.81 6.83 94.81 5.87L94.81 5.87L94.81 5.87Q94.81 4.91 94.27 4.53L94.27 4.53L94.27 4.53Q93.73 4.14 92.67 4.14L92.67 4.14ZM89.01 3.49L93.07 3.49L93.07 3.49Q93.80 3.49 94.37 3.65L94.37 3.65L94.37 3.65Q94.93 3.82 95.33 4.13L95.33 4.13L95.33 4.13Q95.72 4.44 95.92 4.86L95.92 4.86L95.92 4.86Q96.12 5.28 96.12 5.78L96.12 5.78L96.12 5.78Q96.12 6.52 95.63 7.13L95.63 7.13L95.63 7.13Q95.13 7.74 93.98 7.98L93.98 7.98L93.98 7.98Q94.67 8.08 95.17 8.29L95.17 8.29L95.17 8.29Q95.66 8.51 95.98 8.81L95.98 8.81L95.98 8.81Q96.29 9.11 96.44 9.49L96.44 9.49L96.44 9.49Q96.59 9.87 96.59 10.29L96.59 10.29L96.59 10.29Q96.59 10.77 96.38 11.23L96.38 11.23L96.38 11.23Q96.18 11.69 95.73 12.05L95.73 12.05L95.73 12.05Q95.28 12.40 94.57 12.63L94.57 12.63L94.57 12.63Q93.86 12.85 92.83 12.85L92.83 12.85L89.01 12.85L89.01 12.28L90.30 12.12L90.30 12.12Q90.33 11.24 90.33 10.34L90.33 10.34L90.33 10.34Q90.33 9.44 90.33 8.51L90.33 8.51L90.33 7.83L90.33 7.83Q90.33 6.92 90.33 6.02L90.33 6.02L90.33 6.02Q90.33 5.12 90.30 4.21L90.30 4.21L89.01 4.06L89.01 3.49ZM101.74 11.38L101.74 9.23L101.74 9.23Q101.37 9.32 101.03 9.44L101.03 9.44L101.03 9.44Q100.69 9.55 100.46 9.63L100.46 9.63L100.46 9.63Q100.00 9.81 99.73 10.00L99.73 10.00L99.73 10.00Q99.46 10.19 99.32 10.37L99.32 10.37L99.32 10.37Q99.18 10.56 99.13 10.74L99.13 10.74L99.13 10.74Q99.09 10.92 99.09 11.07L99.09 11.07L99.09 11.07Q99.09 11.35 99.17 11.52L99.17 11.52L99.17 11.52Q99.25 11.69 99.36 11.82L99.36 11.82L99.36 11.82Q99.68 12.14 100.21 12.14L100.21 12.14L100.21 12.14Q100.38 12.14 100.53 12.10L100.53 12.10L100.53 12.10Q100.69 12.07 100.86 11.98L100.86 11.98L100.86 11.98Q101.02 11.89 101.23 11.74L101.23 11.74L101.23 11.74Q101.44 11.59 101.74 11.38L101.74 11.38ZM103.98 11.94L104.26 12.25L104.26 12.25Q104.02 12.70 103.74 12.85L103.74 12.85L103.74 12.85Q103.46 12.99 103.12 12.99L103.12 12.99L103.12 12.99Q102.54 12.99 102.20 12.71L102.20 12.71L102.20 12.71Q101.86 12.42 101.77 11.94L101.77 11.94L101.77 11.94Q101.49 12.22 101.25 12.43L101.25 12.43L101.25 12.43Q101.01 12.64 100.77 12.78L100.77 12.78L100.77 12.78Q100.53 12.92 100.28 12.99L100.28 12.99L100.28 12.99Q100.03 13.06 99.72 13.06L99.72 13.06L99.72 13.06Q99.34 13.06 99.00 12.95L99.00 12.95L99.00 12.95Q98.66 12.84 98.40 12.61L98.40 12.61L98.40 12.61Q98.14 12.39 97.99 12.06L97.99 12.06L97.99 12.06Q97.85 11.73 97.85 11.30L97.85 11.30L97.85 11.30Q97.85 11.00 97.94 10.72L97.94 10.72L97.94 10.72Q98.04 10.44 98.29 10.19L98.29 10.19L98.29 10.19Q98.55 9.93 99.00 9.67L99.00 9.67L99.00 9.67Q99.46 9.41 100.17 9.16L100.17 9.16L100.17 9.16Q100.49 9.04 100.91 8.93L100.91 8.93L100.91 8.93Q101.32 8.81 101.74 8.69L101.74 8.69L101.74 8.32L101.74 8.32Q101.74 7.81 101.66 7.48L101.66 7.48L101.66 7.48Q101.58 7.15 101.43 6.96L101.43 6.96L101.43 6.96Q101.28 6.78 101.03 6.70L101.03 6.70L101.03 6.70Q100.79 6.62 100.44 6.62L100.44 6.62L100.44 6.62Q100.28 6.62 100.11 6.64L100.11 6.64L100.11 6.64Q99.93 6.65 99.72 6.69L99.72 6.69L99.44 7.67L99.44 7.67Q99.25 8.34 98.69 8.34L98.69 8.34L98.69 8.34Q98.39 8.34 98.22 8.18L98.22 8.18L98.22 8.18Q98.06 8.02 98.03 7.74L98.03 7.74L98.03 7.74Q98.22 6.94 98.95 6.46L98.95 6.46L98.95 6.46Q99.68 5.98 100.76 5.98L100.76 5.98L100.76 5.98Q101.86 5.98 102.40 6.54L102.40 6.54L102.40 6.54Q102.93 7.10 102.93 8.44L102.93 8.44L102.93 11.44L102.93 11.44Q102.93 12.26 103.39 12.26L103.39 12.26L103.39 12.26Q103.56 12.26 103.68 12.19L103.68 12.19L103.68 12.19Q103.81 12.11 103.91 12.03L103.91 12.03L103.98 11.94ZM106.92 6.12L107.07 7.76L107.07 7.76Q107.44 6.92 107.98 6.45L107.98 6.45L107.98 6.45Q108.51 5.98 109.09 5.98L109.09 5.98L109.09 5.98Q109.40 5.98 109.68 6.14L109.68 6.14L109.68 6.14Q109.97 6.30 110.04 6.66L110.04 6.66L110.04 6.66Q110.04 7.01 109.80 7.22L109.80 7.22L109.80 7.22Q109.56 7.42 109.20 7.42L109.20 7.42L109.20 7.42Q108.77 7.42 108.40 7.07L108.40 7.07L108.30 6.97L108.30 6.97Q107.87 7.29 107.58 7.74L107.58 7.74L107.58 7.74Q107.28 8.18 107.09 8.81L107.09 8.81L107.09 9.91L107.09 9.91Q107.09 10.37 107.09 10.99L107.09 10.99L107.09 10.99Q107.10 11.61 107.11 12.14L107.11 12.14L108.26 12.35L108.26 12.85L104.87 12.85L104.87 12.35L105.88 12.17L105.88 12.17Q105.90 11.63 105.90 11.01L105.90 11.01L105.90 11.01Q105.91 10.39 105.91 9.91L105.91 9.91L105.91 9.20L105.91 9.20Q105.91 8.62 105.90 8.25L105.90 8.25L105.90 8.25Q105.88 7.87 105.87 7.45L105.87 7.45L104.76 7.32L104.76 6.83L106.71 5.98L106.92 6.12ZM112.71 7.59L112.71 11.48L112.71 11.48Q113.15 11.89 113.57 12.08L113.57 12.08L113.57 12.08Q113.99 12.26 114.38 12.26L114.38 12.26L114.38 12.26Q114.76 12.26 115.09 12.10L115.09 12.10L115.09 12.10Q115.43 11.93 115.68 11.59L115.68 11.59L115.68 11.59Q115.93 11.26 116.08 10.75L116.08 10.75L116.08 10.75Q116.23 10.25 116.23 9.58L116.23 9.58L116.23 9.58Q116.23 8.22 115.74 7.50L115.74 7.50L115.74 7.50Q115.25 6.78 114.45 6.78L114.45 6.78L114.45 6.78Q114.13 6.78 113.71 6.94L113.71 6.94L113.71 6.94Q113.29 7.11 112.71 7.59L112.71 7.59ZM112.67 4.75L112.67 7.06L112.67 7.06Q113.16 6.50 113.70 6.24L113.70 6.24L113.70 6.24Q114.24 5.98 114.83 5.98L114.83 5.98L114.83 5.98Q115.39 5.98 115.87 6.22L115.87 6.22L115.87 6.22Q116.35 6.45 116.71 6.91L116.71 6.91L116.71 6.91Q117.07 7.36 117.28 8.01L117.28 8.01L117.28 8.01Q117.49 8.65 117.49 9.46L117.49 9.46L117.49 9.46Q117.49 10.28 117.27 10.94L117.27 10.94L117.27 10.94Q117.05 11.61 116.67 12.08L116.67 12.08L116.67 12.08Q116.28 12.54 115.76 12.80L115.76 12.80L115.76 12.80Q115.23 13.06 114.62 13.06L114.62 13.06L114.62 13.06Q114.13 13.06 113.67 12.87L113.67 12.87L113.67 12.87Q113.20 12.67 112.77 12.18L112.77 12.18L112.66 12.18L112.57 12.99L110.46 12.85L110.46 12.35L111.51 12.15L111.51 12.15Q111.52 11.62 111.53 11.00L111.53 11.00L111.53 11.00Q111.54 10.37 111.54 9.91L111.54 9.91L111.54 3.91L110.39 3.77L110.39 3.28L112.53 2.65L112.73 2.76L112.67 4.75ZM120.06 8.86L122.61 8.86L122.61 8.86Q123.12 8.86 123.28 8.65L123.28 8.65L123.28 8.65Q123.45 8.44 123.45 8.13L123.45 8.13L123.45 8.13Q123.45 7.84 123.33 7.57L123.33 7.57L123.33 7.57Q123.21 7.29 123.01 7.08L123.01 7.08L123.01 7.08Q122.81 6.87 122.54 6.75L122.54 6.75L122.54 6.75Q122.26 6.62 121.94 6.62L121.94 6.62L121.94 6.62Q121.65 6.62 121.33 6.74L121.33 6.74L121.33 6.74Q121.02 6.86 120.76 7.13L120.76 7.13L120.76 7.13Q120.50 7.41 120.31 7.83L120.31 7.83L120.31 7.83Q120.12 8.26 120.06 8.86L120.06 8.86ZM124.52 9.46L120.04 9.46L120.04 9.46Q120.06 10.77 120.68 11.47L120.68 11.47L120.68 11.47Q121.30 12.17 122.30 12.17L122.30 12.17L122.30 12.17Q122.98 12.17 123.42 11.89L123.42 11.89L123.42 11.89Q123.87 11.61 124.25 11.16L124.25 11.16L124.59 11.42L124.59 11.42Q124.22 12.18 123.54 12.62L123.54 12.62L123.54 12.62Q122.86 13.06 121.90 13.06L121.90 13.06L121.90 13.06Q121.18 13.06 120.61 12.82L120.61 12.82L120.61 12.82Q120.04 12.59 119.63 12.13L119.63 12.13L119.63 12.13Q119.22 11.68 119.00 11.03L119.00 11.03L119.00 11.03Q118.78 10.39 118.78 9.59L118.78 9.59L118.78 9.59Q118.78 8.79 119.03 8.13L119.03 8.13L119.03 8.13Q119.28 7.46 119.72 6.99L119.72 6.99L119.72 6.99Q120.16 6.51 120.75 6.24L120.75 6.24L120.75 6.24Q121.34 5.98 122.00 5.98L122.00 5.98L122.00 5.98Q122.54 5.98 123.03 6.16L123.03 6.16L123.03 6.16Q123.51 6.34 123.86 6.69L123.86 6.69L123.86 6.69Q124.21 7.04 124.41 7.55L124.41 7.55L124.41 7.55Q124.61 8.05 124.61 8.68L124.61 8.68L124.61 8.68Q124.61 8.92 124.59 9.11L124.59 9.11L124.59 9.11Q124.56 9.31 124.52 9.46L124.52 9.46ZM127.90 6.12L128.06 7.76L128.06 7.76Q128.42 6.92 128.96 6.45L128.96 6.45L128.96 6.45Q129.50 5.98 130.07 5.98L130.07 5.98L130.07 5.98Q130.38 5.98 130.67 6.14L130.67 6.14L130.67 6.14Q130.96 6.30 131.03 6.66L131.03 6.66L131.03 6.66Q131.03 7.01 130.79 7.22L130.79 7.22L130.79 7.22Q130.55 7.42 130.19 7.42L130.19 7.42L130.19 7.42Q129.75 7.42 129.39 7.07L129.39 7.07L129.29 6.97L129.29 6.97Q128.86 7.29 128.56 7.74L128.56 7.74L128.56 7.74Q128.27 8.18 128.07 8.81L128.07 8.81L128.07 9.91L128.07 9.91Q128.07 10.37 128.08 10.99L128.08 10.99L128.08 10.99Q128.09 11.61 128.10 12.14L128.10 12.14L129.25 12.35L129.25 12.85L125.86 12.85L125.86 12.35L126.87 12.17L126.87 12.17Q126.88 11.63 126.89 11.01L126.89 11.01L126.89 11.01Q126.90 10.39 126.90 9.91L126.90 9.91L126.90 9.20L126.90 9.20Q126.90 8.62 126.88 8.25L126.88 8.25L126.88 8.25Q126.87 7.87 126.85 7.45L126.85 7.45L125.75 7.32L125.75 6.83L127.69 5.98L127.90 6.12ZM141.85 10.36L142.73 10.36L142.67 12.39L142.67 12.39Q142.00 12.75 141.30 12.91L141.30 12.91L141.30 12.91Q140.59 13.06 139.85 13.06L139.85 13.06L139.85 13.06Q138.78 13.06 137.91 12.71L137.91 12.71L137.91 12.71Q137.03 12.35 136.41 11.70L136.41 11.70L136.41 11.70Q135.79 11.05 135.44 10.15L135.44 10.15L135.44 10.15Q135.10 9.25 135.10 8.18L135.10 8.18L135.10 8.18Q135.10 7.11 135.46 6.21L135.46 6.21L135.46 6.21Q135.81 5.31 136.44 4.65L136.44 4.65L136.44 4.65Q137.07 4.00 137.94 3.64L137.94 3.64L137.94 3.64Q138.81 3.28 139.85 3.28L139.85 3.28L139.85 3.28Q140.42 3.28 141.12 3.41L141.12 3.41L141.12 3.41Q141.82 3.54 142.53 3.95L142.53 3.95L142.59 5.99L141.71 5.99L141.43 4.33L141.43 4.33Q141.06 4.14 140.71 4.07L140.71 4.07L140.71 4.07Q140.36 3.99 140 3.99L140 3.99L140 3.99Q139.30 3.99 138.68 4.26L138.68 4.26L138.68 4.26Q138.07 4.54 137.61 5.06L137.61 5.06L137.61 5.06Q137.14 5.59 136.88 6.37L136.88 6.37L136.88 6.37Q136.61 7.15 136.61 8.18L136.61 8.18L136.61 8.18Q136.61 9.20 136.86 9.97L136.86 9.97L136.86 9.97Q137.10 10.75 137.54 11.28L137.54 11.28L137.54 11.28Q137.97 11.82 138.58 12.09L138.58 12.09L138.58 12.09Q139.19 12.36 139.90 12.36L139.90 12.36L139.90 12.36Q140.31 12.36 140.73 12.27L140.73 12.27L140.73 12.27Q141.15 12.18 141.57 11.98L141.57 11.98L141.85 10.36ZM147.13 6.62L147.13 6.62L147.13 6.62Q146.20 6.62 145.71 7.37L145.71 7.37L145.71 7.37Q145.22 8.12 145.22 9.55L145.22 9.55L145.22 9.55Q145.22 10.96 145.71 11.70L145.71 11.70L145.71 11.70Q146.20 12.43 147.13 12.43L147.13 12.43L147.13 12.43Q148.04 12.43 148.53 11.70L148.53 11.70L148.53 11.70Q149.02 10.96 149.02 9.55L149.02 9.55L149.02 9.55Q149.02 8.12 148.53 7.37L148.53 7.37L148.53 7.37Q148.04 6.62 147.13 6.62ZM147.13 5.98L147.13 5.98L147.13 5.98Q147.73 5.98 148.31 6.21L148.31 6.21L148.31 6.21Q148.89 6.44 149.34 6.90L149.34 6.90L149.34 6.90Q149.79 7.35 150.07 8.02L150.07 8.02L150.07 8.02Q150.35 8.68 150.35 9.55L150.35 9.55L150.35 9.55Q150.35 10.42 150.07 11.07L150.07 11.07L150.07 11.07Q149.80 11.73 149.34 12.17L149.34 12.17L149.34 12.17Q148.89 12.61 148.31 12.84L148.31 12.84L148.31 12.84Q147.73 13.06 147.13 13.06L147.13 13.06L147.13 13.06Q146.51 13.06 145.93 12.84L145.93 12.84L145.93 12.84Q145.35 12.61 144.90 12.17L144.90 12.17L144.90 12.17Q144.45 11.73 144.18 11.07L144.18 11.07L144.18 11.07Q143.91 10.42 143.91 9.55L143.91 9.55L143.91 9.55Q143.91 8.68 144.18 8.02L144.18 8.02L144.18 8.02Q144.45 7.35 144.91 6.90L144.91 6.90L144.91 6.90Q145.36 6.44 145.94 6.21L145.94 6.21L145.94 6.21Q146.51 5.98 147.13 5.98ZM152.77 13.06L152.77 13.06L152.77 13.06Q152.35 13.06 152.06 12.77L152.06 12.77L152.06 12.77Q151.77 12.47 151.77 12.07L151.77 12.07L151.77 12.07Q151.77 11.65 152.06 11.35L152.06 11.35L152.06 11.35Q152.35 11.06 152.77 11.06L152.77 11.06L152.77 11.06Q153.19 11.06 153.47 11.35L153.47 11.35L153.47 11.35Q153.76 11.65 153.76 12.07L153.76 12.07L153.76 12.07Q153.76 12.47 153.47 12.77L153.47 12.77L153.47 12.77Q153.19 13.06 152.77 13.06Z"></path></g><!----><g data-v-423bf9ae="" id="89091ab4-5772-460a-8704-aa46c4bbcc6f" transform="matrix(1.0818077087402345,0,0,1.0818077087402345,-20.00863243274653,-0.7732580680885874)" stroke="none" fill="black"><path d="M20.1 52.1c.6 2.3 1.9 6.7 4.7 9.3.9 3.4 2.6 7.1 5 10.4l9 22.7c1 2.5 3.4 4.2 6.1 4.2h10c2.7 0 5.1-1.7 6.1-4.2l9-22.7c2.5-3.3 4.2-7 5.1-10.4 2.8-2.6 4-7 4.7-9.3 1-3.7 2.1-9-.7-12.7-.1-.1-.2-.3-.3-.4 1.3-6.2 3.7-23.7-9.6-31.9 0 0 2.9-2.3 2.7-5.7 0 0-15.9 1.8-23.6.2C40.7 0 32.5 6 31.1 11.7l-.2.2c-1.4.1-13.5 1.4-10.2 23.3.1 1.2.2 2.4.5 3.7-.1.1-.2.3-.3.4-2.9 3.8-1.8 9.1-.8 12.8zm35.3 24.3c-1.8.6-3.6 1-5.5 1-1.8 0-3.7-.3-5.4-.9-5.1-1.8-8.9-5.5-11.5-9.7 1.6 1.2 3.8 2.2 7.1 2.2 5.2 0 8.5-2 9.9-3.9 1.4 1.9 4.7 3.9 9.9 3.9 3.2 0 5.4-.9 7-2.1-2.6 4-6.5 7.7-11.5 9.5zM27.2 41.8h.4s1.7-22.6 20-14.8c9.6 4.1 16.7 3.9 21.3 2.8 5.8 4 4.1 10.7 3.8 11.8 0 .1 0 .1-.1.2h.4c1.9 0 3.8 1.5 1.7 8.8-1.6 5.7-3.1 7.3-4.3 7.4-.3 1.6-.8 3.4-1.5 5.1-.6.3-1.6.6-2.8.6-3.2 0-5.8-4.1-10.3-4.1-1.3 0-3.1.2-5.7 2-2.6-1.9-4.4-2-5.7-2-4.5 0-7.1 4.1-10.3 4.1-1.3 0-2.2-.3-2.9-.6-.7-1.7-1.2-3.5-1.5-5.1-1.1-.1-2.6-1.7-4.3-7.4-2.1-7.3-.1-8.8 1.8-8.8z"></path></g><!----></svg>